# xmcd
#
# Track frame offsets:
#	150
#	23349
#	36006
#	52170
#	74954
#	92473
#	106222
#	130002
#	144571
#	158383
#	177942
#	195715
#	208271
#
# Disc length: 2983 seconds
# Revision: 0
# Processed by: cddbd v1.5.2PL0 Copyright (c) Steve Scherf et al.
# Submitted via: dBpowerAMP V12.0
#
DISCID=b10ba50d
DTITLE=The Blackberry Bushes - Little Bit of Grace
DYEAR=2010
DGENRE=Old Time
TTITLE0=Salt Creek
TTITLE1=Take It
TTITLE2=Mermaid
TTITLE3=Cotton Skies
TTITLE4=Virginia
TTITLE5=One Promise
TTITLE6=Old Oak Grove
TTITLE7=You're In Love With Me
TTITLE8=I'm On Fire
TTITLE9=Jerusalem Ridge
TTITLE10=Wasting Away
TTITLE11=Rust
TTITLE12=Cluck Old Hen
EXTD=
EXTT0=
EXTT1=
EXTT2=
EXTT3=
EXTT4=
EXTT5=
EXTT6=
EXTT7=
EXTT8=
EXTT9=
EXTT10=
EXTT11=
EXTT12=
PLAYORDER=
